<svg width="36" height="36" viewBox="0 0 36 36" fill="none" xmlns="http://www.w3.org/2000/svg">
<path d="M4.5 18C4.5 19.7728 4.84919 21.5283 5.52763 23.1662C6.20606 24.8041 7.20047 26.2923 8.45406 27.5459C9.70765 28.7995 11.1959 29.7939 12.8338 30.4724C14.4717 31.1508 16.2272 31.5 18 31.5C19.7728 31.5 21.5283 31.1508 23.1662 30.4724C24.8041 29.7939 26.2924 28.7995 27.5459 27.5459C28.7995 26.2923 29.7939 24.8041 30.4724 23.1662C31.1508 21.5283 31.5 19.7728 31.5 18C31.5 14.4196 30.0777 10.9858 27.5459 8.45406C25.0142 5.92232 21.5804 4.5 18 4.5C14.4196 4.5 10.9858 5.92232 8.45406 8.45406C5.92232 10.9858 4.5 14.4196 4.5 18Z" stroke="black" stroke-width="2" stroke-linecap="round" stroke-linejoin="round"/>
<path d="M18.42 17.058C17.7714 17.4309 17.7469 18.3579 18.375 18.7644L24.4566 22.7009C25.122 23.1316 26 22.654 26 21.8615L26 14.4284C26 13.6594 25.1682 13.1782 24.5016 13.5615L21.5 15.2872L18.42 17.058Z" stroke="black" stroke-width="2"/>
<path d="M9.41996 17.058C8.77137 17.4309 8.74695 18.3579 9.37501 18.7644L15.4566 22.7009C16.122 23.1316 17 22.654 17 21.8615L17 14.4284C17 13.6594 16.1682 13.1782 15.5016 13.5615L12.5 15.2872L9.41996 17.058Z" stroke="black" stroke-width="2"/>
</svg>
