<svg width="36" height="36" viewBox="0 0 36 36" fill="none" xmlns="http://www.w3.org/2000/svg">
<path d="M31.5 18C31.5 19.7728 31.1508 21.5283 30.4724 23.1662C29.7939 24.8041 28.7995 26.2923 27.5459 27.5459C26.2923 28.7995 24.8041 29.7939 23.1662 30.4724C21.5283 31.1508 19.7728 31.5 18 31.5C16.2272 31.5 14.4717 31.1508 12.8338 30.4724C11.1959 29.7939 9.70765 28.7995 8.45406 27.5459C7.20047 26.2923 6.20606 24.8041 5.52763 23.1662C4.84919 21.5283 4.5 19.7728 4.5 18C4.5 14.4196 5.92232 10.9858 8.45406 8.45406C10.9858 5.92232 14.4196 4.5 18 4.5C21.5804 4.5 25.0142 5.92232 27.5459 8.45406C30.0777 10.9858 31.5 14.4196 31.5 18Z" stroke="black" stroke-width="2" stroke-linecap="round" stroke-linejoin="round"/>
<path d="M17.58 17.058C18.2286 17.4309 18.2531 18.3579 17.625 18.7644L11.5434 22.7009C10.878 23.1316 10 22.654 10 21.8615L10 14.4284C10 13.6594 10.8318 13.1782 11.4984 13.5615L14.5 15.2872L17.58 17.058Z" stroke="black" stroke-width="2"/>
<path d="M26.58 17.058C27.2286 17.4309 27.2531 18.3579 26.625 18.7644L20.5434 22.7009C19.878 23.1316 19 22.654 19 21.8615L19 14.4284C19 13.6594 19.8318 13.1782 20.4984 13.5615L23.5 15.2872L26.58 17.058Z" stroke="black" stroke-width="2"/>
</svg>
